<?xml version="1.0" encoding="utf-8"?>
<!-- Generator: Adobe Illustrator 15.0.0, SVG Export Plug-In . SVG Version: 6.00 Build 0)  -->
<!DOCTYPE svg PUBLIC "-//W3C//DTD SVG 1.1//EN" "http://www.w3.org/Graphics/SVG/1.1/DTD/svg11.dtd">
<svg version="1.1" xmlns="http://www.w3.org/2000/svg" xmlns:xlink="http://www.w3.org/1999/xlink" x="0px" y="0px" width="14px"
	 height="14px" viewBox="0 0 14 14" enable-background="new 0 0 14 14" xml:space="preserve">
<g id="outline">
	
		<rect x="2.05" y="2.05" transform="matrix(0.7071 0.7071 -0.7071 0.7071 7 -2.8995)" fill="#F6F6F6" width="9.899" height="9.899"/>
</g>
<g id="icon_x5F_bg">
	<path fill="#903F8B" d="M7,1.414L1.414,7L7,12.586L12.586,7L7,1.414z M2.828,7L7,2.828l1.91,1.911H8.044l-1.875,3.75l-0.625-1.25
		h-1.25l1.228,2.455L2.828,7z M5.566,9.738h1.228l2.372-4.744L11.172,7L7,11.172L5.566,9.738z"/>
</g>
<g id="icon_x5F_fg">
	<g>
		<polygon fill="#F0EFF1" points="5.544,7.238 6.169,8.488 8.044,4.739 8.91,4.739 7,2.828 2.828,7 5.521,9.693 4.294,7.238 		"/>
		<polygon fill="#F0EFF1" points="9.166,4.994 6.794,9.738 5.566,9.738 7,11.172 11.172,7 		"/>
	</g>
</g>
</svg>
